<mxfile host="app.diagrams.net" modified="2023-07-23T06:58:37.825Z" agent="Mozilla/5.0 (Macintosh; Intel Mac OS X 10_15_7) AppleWebKit/605.1.15 (KHTML, like Gecko) Version/16.5.1 Safari/605.1.15" version="21.6.5" etag="bzSe2mS8BXUwOCCnOf1y" type="github">
  <diagram name="第 1 页" id="U3-6T15w8mrfJlE8eLqW">
    <mxGraphModel>
      <root>
        <mxCell id="0" />
        <mxCell id="1" parent="0" />
      </root>
    </mxGraphModel>
  </diagram>
</mxfile>
